<?xml version="1.0" encoding="iso-8859-1"?>
<!-- Generator: Adobe Illustrator 16.0.0, SVG Export Plug-In . SVG Version: 6.00 Build 0)  -->
<!DOCTYPE svg PUBLIC "-//W3C//DTD SVG 1.1//EN" "http://www.w3.org/Graphics/SVG/1.1/DTD/svg11.dtd">
<svg version="1.1" xmlns="http://www.w3.org/2000/svg" xmlns:xlink="http://www.w3.org/1999/xlink" x="0px" y="0px"
	 width="25.451px" height="21.062px" viewBox="0 0 25.451 21.062" style="enable-background:new 0 0 25.451 21.062;"
	 xml:space="preserve">
<g id="c71_play">
	<path style="fill:#000000;" d="M2.562,3.328V1.063H4.83v2.265H2.562z M7.169,3.328V1.063h2.27v2.265H7.169z M11.968,3.328V1.063
		h2.27v2.265H11.968z M16.576,3.328V1.063h2.268v2.265H16.576z M20.99,3.328V1.063h2.27v2.265H20.99z M2.728,16.433V4.691h20.135
		v11.741H2.728z M2.562,20.063v-2.271H4.83v2.271H2.562z M7.169,20.063v-2.271h2.27v2.271H7.169z M11.968,20.063v-2.271h2.27v2.271
		H11.968z M16.576,20.063v-2.271h2.268v2.271H16.576z M20.99,20.063v-2.271h2.27v2.271H20.99z M24.879,0H0.572
		C0.257,0,0,0.209,0,0.472V20.59c0,0.257,0.257,0.472,0.572,0.472h24.307c0.316,0,0.572-0.215,0.572-0.472V0.472
		C25.451,0.209,25.195,0,24.879,0z"/>
	<path style="fill:#000000;" d="M10.313,6.281c0.067-0.031,0.145-0.022,0.205,0.022l6.382,4.074c0.043,0.038,0.07,0.095,0.07,0.151
		c0,0.059-0.027,0.114-0.07,0.151l-6.382,4.075c-0.037,0.027-0.078,0.042-0.122,0.042l-0.083-0.02
		c-0.065-0.029-0.108-0.099-0.108-0.171V6.455C10.205,6.381,10.248,6.314,10.313,6.281z"/>
</g>
<g id="Capa_1">
</g>
</svg>
