<?xml version="1.0" encoding="utf-8"?>
<!-- Generator: Adobe Illustrator 17.0.0, SVG Export Plug-In . SVG Version: 6.00 Build 0)  -->
<!DOCTYPE svg PUBLIC "-//W3C//DTD SVG 1.1//EN" "http://www.w3.org/Graphics/SVG/1.1/DTD/svg11.dtd">
<svg version="1.1" id="Layer_1" xmlns="http://www.w3.org/2000/svg" xmlns:xlink="http://www.w3.org/1999/xlink" x="0px" y="0px"
	 width="26px" height="26px" viewBox="0 0 26 26" enable-background="new 0 0 26 26" xml:space="preserve">
<path d="M23.577,21.654c0,2.642-5.483,3.846-10.577,3.846S2.423,24.296,2.423,21.654c0-2.033,3.025-2.992,5.562-3.439
	c0.525-0.091,1.022,0.258,1.114,0.781c0.092,0.523-0.257,1.022-0.78,1.114c-3.06,0.537-3.924,1.379-3.974,1.559
	c0.147,0.504,3.032,1.908,8.655,1.908s8.508-1.404,8.656-1.938c-0.051-0.15-0.92-0.997-4.002-1.533
	c-0.523-0.091-0.873-0.59-0.782-1.113c0.091-0.522,0.581-0.871,1.113-0.782C20.536,18.656,23.577,19.613,23.577,21.654z
	 M9.154,15.885h0.961v5.769c0,0.53,0.432,0.961,0.962,0.961h3.846c0.53,0,0.962-0.432,0.962-0.961v-5.769h0.961
	c0.53,0,0.962-0.432,0.962-0.962V9.154c0-0.492-0.772-1.572-2.112-1.728c-0.55-0.105-1.611-0.18-2.681-0.18
	c-1.08-0.001-2.156,0.075-2.712,0.18C8.964,7.583,8.192,8.663,8.192,9.154v5.769C8.192,15.453,8.624,15.885,9.154,15.885z M13,6.269
	c1.593,0,2.885-1.292,2.885-2.885C15.885,1.792,14.593,0.5,13,0.5s-2.885,1.292-2.885,2.885C10.115,4.978,11.407,6.269,13,6.269z"/>
</svg>
