<?xml version="1.0" encoding="iso-8859-1"?>
<!-- Generator: Adobe Illustrator 16.0.0, SVG Export Plug-In . SVG Version: 6.00 Build 0)  -->
<!DOCTYPE svg PUBLIC "-//W3C//DTD SVG 1.1//EN" "http://www.w3.org/Graphics/SVG/1.1/DTD/svg11.dtd">
<svg version="1.1" id="Capa_1" xmlns="http://www.w3.org/2000/svg" xmlns:xlink="http://www.w3.org/1999/xlink" x="0px" y="0px"
	 width="30.318px" height="22.039px" viewBox="0 0 30.318 22.039" style="enable-background:new 0 0 30.318 22.039;"
	 xml:space="preserve">
<path d="M29.062,6.779v-1.83l-0.135-0.508c-0.041-0.061-0.65-1.125-1.873-2.219C25.834,1.133,23.945,0,21.461,0
	c-2.488,0-4.357,1.137-5.551,2.23c-0.369,0.34-0.68,0.674-0.934,0.977c-0.264-0.307-0.586-0.643-0.965-0.984
	C12.793,1.133,10.904,0,8.42,0C5.93,0,4.062,1.137,2.865,2.23C1.666,3.328,1.08,4.398,1.047,4.459l-0.129,0.49v1.83H0v15.26h30.318
	V6.779H29.062z M5.428,18.943c0.811-0.479,1.799-0.828,2.992-0.83c1.188,0,2.189,0.35,3.018,0.83H5.428z M18.473,18.943
	c0.812-0.479,1.801-0.828,2.988-0.83c1.189,0,2.189,0.35,3.021,0.83H18.473z M27.008,18.246c-1.221-1.078-3.088-2.182-5.547-2.182
	c-2.414-0.002-4.248,1.072-5.443,2.133v-3.342l-2.057-0.889v4.279c-1.215-1.074-3.088-2.182-5.541-2.182H8.416
	c-2.416,0-4.246,1.072-5.441,2.133V5.24c0.213-0.322,0.672-0.959,1.367-1.572c0.953-0.84,2.287-1.611,4.078-1.611
	c1.838,0,3.238,0.828,4.225,1.701c0.484,0.434,0.865,0.875,1.107,1.201c0.088,0.111,0.158,0.215,0.209,0.293v5.65l2.057,0.881V5.24
	c0.213-0.32,0.672-0.959,1.367-1.572c0.957-0.84,2.293-1.611,4.076-1.611c1.84,0,3.242,0.828,4.23,1.701
	c0.488,0.434,0.859,0.875,1.105,1.201c0.086,0.111,0.154,0.215,0.211,0.293V18.246z"/>
<path d="M13.494,11.447L13,12.434l6.012,3.236c1.256-0.289,0.771-1.396,0.771-1.396L13.494,11.447z"/>
<path d="M10.633,5.912C8.518,4.846,5.938,5.699,4.875,7.816c-1.066,2.115-0.217,4.695,1.9,5.762c2,1.004,4.406,0.301,5.568-1.559
	l0.01-0.02c0.217-0.369,0.297-0.514,0.385-0.797C13.471,9.189,12.596,6.898,10.633,5.912z M11.582,11.191
	c-0.803,1.588-2.736,2.229-4.324,1.43S5.033,9.885,5.832,8.299c0.795-1.588,2.732-2.229,4.318-1.43
	C11.74,7.67,12.377,9.604,11.582,11.191z"/>
<g>
</g>
<g>
</g>
<g>
</g>
<g>
</g>
<g>
</g>
<g>
</g>
<g>
</g>
<g>
</g>
<g>
</g>
<g>
</g>
<g>
</g>
<g>
</g>
<g>
</g>
<g>
</g>
<g>
</g>
</svg>
