<?xml version="1.0" encoding="utf-8"?>
<!-- Generator: Adobe Illustrator 16.0.4, SVG Export Plug-In . SVG Version: 6.00 Build 0)  -->
<!DOCTYPE svg PUBLIC "-//W3C//DTD SVG 1.1//EN" "http://www.w3.org/Graphics/SVG/1.1/DTD/svg11.dtd">
<svg version="1.1" id="Layer_1" xmlns="http://www.w3.org/2000/svg" xmlns:xlink="http://www.w3.org/1999/xlink" x="0px" y="0px"
	 width="50px" height="50px" viewBox="0 0 50 50" enable-background="new 0 0 50 50" xml:space="preserve">
<path d="M43.705,40.94V16.612H26.033L36.609,6.036l-1.174-1.174L25,15.301L14.563,4.862l-1.172,1.174l10.576,10.576H6.294V40.94
	h13.651v1.8h-3.428v2.397h16.96V42.74h-3.426v-1.8H43.705z M11.811,39.742H9.069v-1.199h2.742V39.742z M8.784,36.745V19.103h32.433
	v17.643H8.784z M21.992,31.868h2.729v3.402C23.53,34.214,22.617,33.065,21.992,31.868z M21.368,31.868
	c0.599,1.234,1.482,2.41,2.637,3.502c-2.268-0.305-4.205-1.629-5.344-3.502H21.368z M28.633,31.868h2.707
	c-1.139,1.873-3.076,3.197-5.344,3.502C27.15,34.278,28.035,33.103,28.633,31.868z M25.28,35.272v-3.404h2.728
	C27.385,33.065,26.471,34.214,25.28,35.272z M21.905,24.188c0.623-1.262,1.564-2.457,2.809-3.564c0.002,0,0.005,0,0.008,0v3.564
	H21.905z M21.287,24.188h-2.626c1.104-1.817,2.963-3.121,5.143-3.476C22.696,21.799,21.85,22.966,21.287,24.188z M28.715,24.188
	c-0.564-1.223-1.41-2.39-2.52-3.476c2.182,0.354,4.037,1.657,5.145,3.476H28.715z M28.096,24.188H25.28v-3.564
	c0.003,0,0.007,0,0.009,0C26.529,21.729,27.473,22.927,28.096,24.188z M18.676,30.633h-0.548h-0.55l-2.176-3.802v3.802h-0.514
	h-0.516V25.36h0.577h0.579l2.115,3.705V25.36h0.513h0.518L18.676,30.633L18.676,30.633z M20.833,26.297v1.118h2.579v0.454v0.452
	h-2.579v1.375h2.901v0.467v0.47h-4V25.36h3.879v0.467v0.471L20.833,26.297L20.833,26.297z M24.192,25.36h0.572h0.572l0.88,3.856
	l0.754-3.856h0.584h0.588l0.762,3.828h0.004l0.873-3.828h0.559h0.555l-1.467,5.271h-0.523h-0.523l-0.846-4.15l-0.828,4.15h-0.525
	H25.66L24.192,25.36z M35.238,28.089c0.258,0.225,0.389,0.58,0.389,1.073c0,0.495-0.195,0.888-0.586,1.18
	c-0.391,0.291-0.916,0.435-1.582,0.435s-1.188-0.152-1.562-0.463c-0.375-0.31-0.576-0.746-0.602-1.316h1.061
	c0.014,0.281,0.113,0.496,0.307,0.646c0.189,0.15,0.457,0.228,0.799,0.228c0.354,0,0.625-0.06,0.824-0.173
	c0.195-0.113,0.295-0.271,0.295-0.471c0-0.197-0.07-0.344-0.213-0.438c-0.141-0.09-0.436-0.19-0.891-0.29
	c-0.836-0.186-1.396-0.391-1.678-0.604c-0.279-0.218-0.418-0.555-0.418-1.013c0-0.508,0.184-0.917,0.553-1.218
	c0.373-0.299,0.873-0.447,1.504-0.447c0.59,0,1.07,0.155,1.439,0.467c0.373,0.312,0.578,0.729,0.619,1.258h-1.074
	c-0.02-0.252-0.129-0.451-0.328-0.598c-0.201-0.145-0.463-0.22-0.787-0.22c-0.279,0-0.498,0.062-0.654,0.181
	c-0.156,0.123-0.236,0.299-0.236,0.516c0,0.158,0.084,0.283,0.248,0.367c0.162,0.088,0.508,0.188,1.037,0.308
	C34.467,27.664,34.979,27.865,35.238,28.089z"/>
</svg>
